<svg xmlns="http://www.w3.org/2000/svg" xmlns:xlink="http://www.w3.org/1999/xlink" width="640" height="255.39"><rect width="640" height="255.39" rx="5" ry="5" class="a"/><svg y="0%" x="0%"><circle cx="20" cy="20" r="6" fill="#ff5f58"/><circle cx="40" cy="20" r="6" fill="#ffbd2e"/><circle cx="60" cy="20" r="6" fill="#18c132"/></svg><svg height="195.39" viewBox="0 0 60 19.539" width="600" x="15" xmlns="http://www.w3.org/2000/svg" xmlns:xlink="http://www.w3.org/1999/xlink" y="50"><style>@keyframes q{0%{transform:translateX(0)}.59%{transform:translateX(-60px)}1.38%{transform:translateX(-120px)}1.54%{transform:translateX(-300px)}1.57%{transform:translateX(-480px)}19.5%{transform:translateX(-540px)}20.44%{transform:translateX(-600px)}22.79%{transform:translateX(-720px)}24.35%{transform:translateX(-780px)}26.38%{transform:translateX(-840px)}26.94%{transform:translateX(-900px)}27.08%{transform:translateX(-960px)}27.71%{transform:translateX(-1020px)}28.83%{transform:translateX(-1080px)}31.36%{transform:translateX(-1320px)}31.39%{transform:translateX(-1440px)}31.56%{transform:translateX(-1620px)}31.58%{transform:translateX(-1800px)}36.64%{transform:translateX(-1860px)}37.09%{transform:translateX(-1920px)}38.58%{transform:translateX(-2040px)}50.07%{transform:translateX(-2100px)}50.44%{transform:translateX(-2160px)}65.99%{transform:translateX(-2220px)}72.88%{transform:translateX(-2280px)}73.48%{transform:translateX(-2340px)}73.9%{transform:translateX(-2460px)}75.92%{transform:translateX(-2520px)}76.73%{transform:translateX(-2580px)}78.88%{transform:translateX(-2640px)}79.45%{transform:translateX(-2700px)}79.79%{transform:translateX(-2760px)}81%{transform:translateX(-2820px)}81.44%{transform:translateX(-2880px)}81.81%{transform:translateX(-2940px)}82.23%{transform:translateX(-3060px)}82.24%{transform:translateX(-3120px)}82.26%{transform:translateX(-3240px)}82.42%{transform:translateX(-3360px)}82.43%{transform:translateX(-3420px)}82.45%{transform:translateX(-3600px)}98.38%{transform:translateX(-3660px)}98.93%{transform:translateX(-3720px)}99.28%{transform:translateX(-3780px)}99.61%{transform:translateX(-3840px)}99.95%{transform:translateX(-4020px)}99.97%{transform:translateX(-4080px)}99.98%{transform:translateX(-4140px)}99.99%{transform:translateX(-4200px)}to{transform:translateX(-4260px)}}.a{fill:#15161a}.h,.i{fill:#fff;white-space:pre}.i{fill:#bd93f9;font-weight:700}.j,.k,.l,.m,.n{fill:#f55;white-space:pre}.k,.l,.m,.n{fill:#50fa7b}.l,.m,.n{fill:#bbb}.m,.n{fill:#f1fa8c;font-weight:700}.n{fill:#f55}</style><g font-family="Monaco,Consolas,Menlo,'Bitstream Vera Sans Mono','Powerline Symbols',monospace" font-size="1.67"><defs><symbol id="1"><path fill="#b9c0cb" d="M0 0h1v2.171H0z"/><text y="1.67" style="white-space:pre" fill="#15161a" font-weight="700">%</text></symbol><symbol id="2"><text y="1.67" class="h">┌──</text><text x="3.006" y="1.67" class="i">#</text><text x="5.01" y="1.67" class="j">tbo💀</text><text x="10.02" y="1.67" class="k">MacBook-Pro</text><text x="21.042" y="1.67" class="l">@[</text><text x="23.046" y="1.67" class="m">~</text><text x="24.048" y="1.67" class="h">]</text><text x="26.052" y="1.67" class="h">[14:33:36]</text></symbol><symbol id="3"><text y="1.67" class="n">$</text></symbol><symbol id="4"><text y="1.67" class="n">$</text><text x="2.004" y="1.67" class="h">sw</text></symbol><symbol id="5"><text y="1.67" class="h">sw_vers</text><text x="9.018" y="1.67" class="h">swcutil</text><text x="18.036" y="1.67" class="h">swift</text><text x="27.054" y="1.67" class="h">swiftc</text></symbol><symbol id="6"><text y="1.67" class="n">$</text><text x="2.004" y="1.67" class="k">sw_vers</text></symbol><symbol id="7"><text y="1.67" class="h">ProductName:</text><text x="16.032" y="1.67" class="h">macOS</text></symbol><symbol id="8"><text y="1.67" class="h">ProductVersion:</text><text x="16.032" y="1.67" class="h">12.1</text></symbol><symbol id="9"><text y="1.67" class="h">BuildVersion:</text><text x="16.032" y="1.67" class="h">21C52</text></symbol><symbol id="10"><text y="1.67" class="h">┌──</text><text x="3.006" y="1.67" class="i">#</text><text x="5.01" y="1.67" class="j">tbo💀</text><text x="10.02" y="1.67" class="k">MacBook-Pro</text><text x="21.042" y="1.67" class="l">@[</text><text x="23.046" y="1.67" class="m">~</text><text x="24.048" y="1.67" class="h">]</text><text x="26.052" y="1.67" class="h">[14:33:48]</text></symbol><symbol id="11"><text y="1.67" class="n">$</text><text x="2.004" y="1.67" class="h">cu</text></symbol><symbol id="12"><text y="1.67" class="h">cu</text><text x="20.04" y="1.67" class="h">cupsaccept</text><text x="40.08" y="1.67" class="h">cupsd</text></symbol><symbol id="13"><text y="1.67" class="h">cupsenable</text><text x="20.04" y="1.67" class="h">cupsreject</text><text x="40.08" y="1.67" class="h">curl</text></symbol><symbol id="14"><text y="1.67" class="h">current_branch</text><text x="20.04" y="1.67" class="h">cut</text></symbol><symbol id="15"><text y="1.67" class="h">cupsfilter</text><text x="20.04" y="1.67" class="h">cupstestppd</text><text x="40.08" y="1.67" class="h">curl-config</text></symbol><symbol id="16"><text y="1.67" class="h">custom_config_file</text></symbol><symbol id="17"><text y="1.67" class="h">cu</text><text x="2.004" y="1.67" class="n">c</text></symbol><symbol id="18"><text y="1.67" class="h">cucsr</text></symbol><symbol id="19"><text y="1.67" class="h">csreq</text><text x="9.018" y="1.67" class="h">csrutil</text></symbol><symbol id="20"><text y="1.67" class="h">cu</text><text x="2.004" y="1.67" class="k">csrutil</text><text x="10.02" y="1.67" class="h">status</text></symbol><symbol id="21"><text y="1.67" class="h">System</text><text x="7.014" y="1.67" class="h">Integrity</text><text x="17.034" y="1.67" class="h">Protection</text><text x="28.056" y="1.67" class="h">status:</text><text x="36.072" y="1.67" class="h">enabled.</text></symbol><symbol id="22"><text y="1.67" class="h">┌──</text><text x="3.006" y="1.67" class="i">#</text><text x="5.01" y="1.67" class="j">tbo💀</text><text x="10.02" y="1.67" class="k">MacBook-Pro</text><text x="21.042" y="1.67" class="l">@[</text><text x="23.046" y="1.67" class="m">~</text><text x="24.048" y="1.67" class="h">]</text><text x="26.052" y="1.67" class="h">[14:34:08]</text></symbol><symbol id="23"><text y="1.67" class="n">$</text><text x="2.004" y="1.67" class="k">exit</text></symbol><symbol id="24"><text y="1.67" class="h">Saving</text><text x="7.014" y="1.67" class="h">session...completed.</text></symbol><symbol id="a"><path fill="transparent" d="M0 0h60v10H0z"/></symbol><symbol id="b"><path fill="#bbb" d="M0 0h1.102v2.171H0z"/></symbol></defs><path class="a" d="M0 0h60v19.539H0z"/><g style="animation-duration:39.874453s;animation-iteration-count:infinite;animation-name:q;animation-timing-function:steps(1,end)"><svg width="4320"><svg><use xlink:href="#a"/><use xlink:href="#b" x="-.004"/></svg><svg x="60"><use xlink:href="#a"/><use xlink:href="#b" x="-.004"/></svg><svg x="120"><use xlink:href="#a"/><use xlink:href="#b" x="-.004" y="6.488"/><use xlink:href="#1"/></svg><svg x="180"><use xlink:href="#a"/><use xlink:href="#b" x="-.004" y="6.488"/><use xlink:href="#1"/></svg><svg x="240"><use xlink:href="#a"/><use xlink:href="#b" x="-.004" y="6.488"/><use xlink:href="#1"/></svg><svg x="300"><use xlink:href="#a"/><use xlink:href="#b" x="-.004" y="6.488"/><use xlink:href="#1"/></svg><svg x="360"><use xlink:href="#a"/><use xlink:href="#b" x="1.996" y="10.83"/><use xlink:href="#1"/><use xlink:href="#2" y="8.684"/><use xlink:href="#3" y="10.855"/></svg><svg x="420"><use xlink:href="#a"/><use xlink:href="#b" x="1.996" y="10.83"/><use xlink:href="#1"/><use xlink:href="#2" y="8.684"/><use xlink:href="#3" y="10.855"/></svg><svg x="480"><use xlink:href="#a"/><use xlink:href="#b" x="1.996" y="10.83"/><use xlink:href="#1"/><use xlink:href="#2" y="8.684"/><use xlink:href="#3" y="10.855"/></svg><svg x="540"><use xlink:href="#a"/><use xlink:href="#b" x="2.996" y="10.83"/><use xlink:href="#1"/><use xlink:href="#2" y="8.684"/><text y="12.525" class="n">$</text><text x="2.004" y="12.525" class="n">s</text></svg><svg x="600"><use xlink:href="#a"/><use xlink:href="#b" x="3.996" y="10.83"/><use xlink:href="#1"/><use xlink:href="#2" y="8.684"/><text y="12.525" class="n">$</text><text x="2.004" y="12.525" class="n">sw</text></svg><svg x="660"><use xlink:href="#a"/><use xlink:href="#b" x="-.004" y="13.001"/><use xlink:href="#1"/><use xlink:href="#2" y="8.684"/><use xlink:href="#4" y="10.855"/></svg><svg x="720"><use xlink:href="#a"/><use xlink:href="#b" x="3.996" y="10.83"/><use xlink:href="#1"/><use xlink:href="#2" y="8.684"/><use xlink:href="#4" y="10.855"/><use xlink:href="#5" y="13.026"/></svg><svg x="780"><use xlink:href="#a"/><use xlink:href="#b" x="4.996" y="10.83"/><use xlink:href="#1"/><use xlink:href="#2" y="8.684"/><text y="12.525" class="n">$</text><text x="2.004" y="12.525" class="n">sw_</text><use xlink:href="#5" y="13.026"/></svg><svg x="840"><use xlink:href="#a"/><use xlink:href="#b" x="5.996" y="10.83"/><use xlink:href="#1"/><use xlink:href="#2" y="8.684"/><text y="12.525" class="n">$</text><text x="2.004" y="12.525" class="n">sw_v</text><use xlink:href="#5" y="13.026"/></svg><svg x="900"><use xlink:href="#a"/><use xlink:href="#b" x="6.996" y="10.83"/><use xlink:href="#1"/><use xlink:href="#2" y="8.684"/><text y="12.525" class="n">$</text><text x="2.004" y="12.525" class="n">sw_ve</text><use xlink:href="#5" y="13.026"/></svg><svg x="960"><use xlink:href="#a"/><use xlink:href="#b" x="7.996" y="10.83"/><use xlink:href="#1"/><use xlink:href="#2" y="8.684"/><text y="12.525" class="n">$</text><text x="2.004" y="12.525" class="n">sw_ver</text><use xlink:href="#5" y="13.026"/></svg><svg x="1020"><use xlink:href="#a"/><use xlink:href="#b" x="8.996" y="10.83"/><use xlink:href="#1"/><use xlink:href="#2" y="8.684"/><use xlink:href="#6" y="10.855"/><use xlink:href="#5" y="13.026"/></svg><svg x="1080"><use xlink:href="#a"/><use xlink:href="#b" x="9.996" y="10.83"/><use xlink:href="#1"/><use xlink:href="#2" y="8.684"/><use xlink:href="#6" y="10.855"/><use xlink:href="#5" y="13.026"/></svg><svg x="1140"><use xlink:href="#a"/><use xlink:href="#b" x="8.996" y="10.83"/><use xlink:href="#1"/><use xlink:href="#2" y="8.684"/><use xlink:href="#6" y="10.855"/><use xlink:href="#5" y="13.026"/></svg><svg x="1200"><use xlink:href="#a"/><use xlink:href="#b" x="8.996" y="10.83"/><use xlink:href="#1"/><use xlink:href="#2" y="8.684"/><use xlink:href="#6" y="10.855"/><use xlink:href="#5" y="13.026"/></svg><svg x="1260"><use xlink:href="#a"/><use xlink:href="#b" x="-.004" y="13.001"/><use xlink:href="#1"/><use xlink:href="#2" y="8.684"/><use xlink:href="#6" y="10.855"/></svg><svg x="1320"><use xlink:href="#a"/><use xlink:href="#b" x="-.004" y="13.001"/><use xlink:href="#1"/><use xlink:href="#2" y="8.684"/><use xlink:href="#6" y="10.855"/></svg><svg x="1380"><use xlink:href="#a"/><use xlink:href="#b" x="-.004" y="19.514"/><use xlink:href="#1"/><use xlink:href="#2" y="8.684"/><use xlink:href="#6" y="10.855"/><use xlink:href="#7" y="13.026"/><use xlink:href="#8" y="15.197"/><use xlink:href="#9" y="17.368"/></svg><svg x="1440"><use xlink:href="#a"/><use xlink:href="#b" x="-.004" y="19.514"/><use xlink:href="#2" y="2.171"/><use xlink:href="#6" y="4.342"/><use xlink:href="#7" y="6.513"/><use xlink:href="#8" y="8.684"/><use xlink:href="#9" y="10.855"/><use xlink:href="#1" y="13.026"/></svg><svg x="1500"><use xlink:href="#a"/><use xlink:href="#b" x="-.004" y="19.514"/><use xlink:href="#2" y="2.171"/><use xlink:href="#6" y="4.342"/><use xlink:href="#7" y="6.513"/><use xlink:href="#8" y="8.684"/><use xlink:href="#9" y="10.855"/><use xlink:href="#1" y="13.026"/></svg><svg x="1560"><use xlink:href="#a"/><use xlink:href="#b" x="-.004" y="19.514"/><use xlink:href="#2" y="2.171"/><use xlink:href="#6" y="4.342"/><use xlink:href="#7" y="6.513"/><use xlink:href="#8" y="8.684"/><use xlink:href="#9" y="10.855"/><use xlink:href="#1" y="13.026"/></svg><svg x="1620"><use xlink:href="#a"/><use xlink:href="#b" x="-.004" y="19.514"/><use xlink:href="#2" y="2.171"/><use xlink:href="#6" y="4.342"/><use xlink:href="#7" y="6.513"/><use xlink:href="#8" y="8.684"/><use xlink:href="#9" y="10.855"/><use xlink:href="#1" y="13.026"/></svg><svg x="1680"><use xlink:href="#a"/><use xlink:href="#b" x="1.996" y="19.514"/><use xlink:href="#6"/><use xlink:href="#7" y="2.171"/><use xlink:href="#8" y="4.342"/><use xlink:href="#9" y="6.513"/><use xlink:href="#1" y="8.684"/><use xlink:href="#10" y="17.368"/><use xlink:href="#3" y="19.539"/></svg><svg x="1740"><use xlink:href="#a"/><use xlink:href="#b" x="1.996" y="19.514"/><use xlink:href="#6"/><use xlink:href="#7" y="2.171"/><use xlink:href="#8" y="4.342"/><use xlink:href="#9" y="6.513"/><use xlink:href="#1" y="8.684"/><use xlink:href="#10" y="17.368"/><use xlink:href="#3" y="19.539"/></svg><svg x="1800"><use xlink:href="#a"/><use xlink:href="#b" x="1.996" y="19.514"/><use xlink:href="#6"/><use xlink:href="#7" y="2.171"/><use xlink:href="#8" y="4.342"/><use xlink:href="#9" y="6.513"/><use xlink:href="#1" y="8.684"/><use xlink:href="#10" y="17.368"/><use xlink:href="#3" y="19.539"/></svg><svg x="1860"><use xlink:href="#a"/><use xlink:href="#b" x="2.996" y="19.514"/><use xlink:href="#6"/><use xlink:href="#7" y="2.171"/><use xlink:href="#8" y="4.342"/><use xlink:href="#9" y="6.513"/><use xlink:href="#1" y="8.684"/><use xlink:href="#10" y="17.368"/><text y="21.209" class="n">$</text><text x="2.004" y="21.209" class="n">c</text></svg><svg x="1920"><use xlink:href="#a"/><use xlink:href="#b" x="3.996" y="19.514"/><use xlink:href="#6"/><use xlink:href="#7" y="2.171"/><use xlink:href="#8" y="4.342"/><use xlink:href="#9" y="6.513"/><use xlink:href="#1" y="8.684"/><use xlink:href="#10" y="17.368"/><text y="21.209" class="n">$</text><text x="2.004" y="21.209" class="k">cu</text></svg><svg x="1980"><use xlink:href="#a"/><use xlink:href="#b" x="-.004" y="19.514"/><use xlink:href="#7"/><use xlink:href="#8" y="2.171"/><use xlink:href="#9" y="4.342"/><use xlink:href="#1" y="6.513"/><use xlink:href="#10" y="15.197"/><use xlink:href="#11" y="17.368"/></svg><svg x="2040"><use xlink:href="#a"/><use xlink:href="#b" x="3.996" y="15.172"/><use xlink:href="#10" y="4.342"/><use xlink:href="#11" y="6.513"/><use xlink:href="#12" y="8.684"/><use xlink:href="#13" y="10.855"/><use xlink:href="#14" y="13.026"/><text y="16.867" class="h">cucu</text><use xlink:href="#15" y="17.368"/><use xlink:href="#16" y="19.539"/></svg><svg x="2100"><use xlink:href="#a"/><use xlink:href="#b" x="2.996" y="15.172"/><use xlink:href="#10" y="4.342"/><use xlink:href="#11" y="6.513"/><use xlink:href="#12" y="8.684"/><use xlink:href="#13" y="10.855"/><use xlink:href="#14" y="13.026"/><use xlink:href="#17" y="15.197"/><use xlink:href="#15" y="17.368"/><use xlink:href="#16" y="19.539"/></svg><svg x="2160"><use xlink:href="#a"/><use xlink:href="#b" x="1.996" y="15.172"/><use xlink:href="#10" y="4.342"/><use xlink:href="#11" y="6.513"/><use xlink:href="#12" y="8.684"/><use xlink:href="#13" y="10.855"/><use xlink:href="#14" y="13.026"/><text y="16.867" class="h">cu</text><use xlink:href="#15" y="17.368"/><use xlink:href="#16" y="19.539"/></svg><svg x="2220"><use xlink:href="#a"/><use xlink:href="#b" x="2.996" y="15.172"/><use xlink:href="#10" y="4.342"/><use xlink:href="#11" y="6.513"/><use xlink:href="#12" y="8.684"/><use xlink:href="#13" y="10.855"/><use xlink:href="#14" y="13.026"/><use xlink:href="#17" y="15.197"/><use xlink:href="#15" y="17.368"/><use xlink:href="#16" y="19.539"/></svg><svg x="2280"><use xlink:href="#a"/><use xlink:href="#b" x="3.996" y="15.172"/><use xlink:href="#10" y="4.342"/><use xlink:href="#11" y="6.513"/><use xlink:href="#12" y="8.684"/><use xlink:href="#13" y="10.855"/><use xlink:href="#14" y="13.026"/><text y="16.867" class="h">cu</text><text x="2.004" y="16.867" class="n">cs</text><use xlink:href="#15" y="17.368"/><use xlink:href="#16" y="19.539"/></svg><svg x="2340"><use xlink:href="#a"/><use xlink:href="#b" x="4.996" y="15.172"/><use xlink:href="#10" y="4.342"/><use xlink:href="#11" y="6.513"/><use xlink:href="#12" y="8.684"/><use xlink:href="#13" y="10.855"/><use xlink:href="#14" y="13.026"/><text y="16.867" class="h">cu</text><text x="2.004" y="16.867" class="n">csr</text><use xlink:href="#15" y="17.368"/><use xlink:href="#16" y="19.539"/></svg><svg x="2400"><use xlink:href="#a"/><use xlink:href="#b" x="-.004" y="17.343"/><use xlink:href="#10" y="4.342"/><use xlink:href="#11" y="6.513"/><use xlink:href="#12" y="8.684"/><use xlink:href="#13" y="10.855"/><use xlink:href="#14" y="13.026"/><use xlink:href="#18" y="15.197"/></svg><svg x="2460"><use xlink:href="#a"/><use xlink:href="#b" x="4.996" y="15.172"/><use xlink:href="#10" y="4.342"/><use xlink:href="#11" y="6.513"/><use xlink:href="#12" y="8.684"/><use xlink:href="#13" y="10.855"/><use xlink:href="#14" y="13.026"/><use xlink:href="#18" y="15.197"/><use xlink:href="#19" y="17.368"/></svg><svg x="2520"><use xlink:href="#a"/><use xlink:href="#b" x="5.996" y="15.172"/><use xlink:href="#10" y="4.342"/><use xlink:href="#11" y="6.513"/><use xlink:href="#12" y="8.684"/><use xlink:href="#13" y="10.855"/><use xlink:href="#14" y="13.026"/><text y="16.867" class="h">cu</text><text x="2.004" y="16.867" class="n">csru</text><use xlink:href="#19" y="17.368"/></svg><svg x="2580"><use xlink:href="#a"/><use xlink:href="#b" x="9.996" y="15.172"/><use xlink:href="#10" y="4.342"/><use xlink:href="#11" y="6.513"/><use xlink:href="#12" y="8.684"/><use xlink:href="#13" y="10.855"/><use xlink:href="#14" y="13.026"/><text y="16.867" class="h">cu</text><text x="2.004" y="16.867" class="k">csrutil</text><use xlink:href="#19" y="17.368"/></svg><svg x="2640"><use xlink:href="#a"/><use xlink:href="#b" x="10.996" y="15.172"/><use xlink:href="#10" y="4.342"/><use xlink:href="#11" y="6.513"/><use xlink:href="#12" y="8.684"/><use xlink:href="#13" y="10.855"/><use xlink:href="#14" y="13.026"/><text y="16.867" class="h">cu</text><text x="2.004" y="16.867" class="k">csrutil</text><text x="10.02" y="16.867" style="white-space:pre" fill="#fff" text-decoration="underline">s</text><use xlink:href="#19" y="17.368"/></svg><svg x="2700"><use xlink:href="#a"/><use xlink:href="#b" x="11.996" y="15.172"/><use xlink:href="#10" y="4.342"/><use xlink:href="#11" y="6.513"/><use xlink:href="#12" y="8.684"/><use xlink:href="#13" y="10.855"/><use xlink:href="#14" y="13.026"/><text y="16.867" class="h">cu</text><text x="2.004" y="16.867" class="k">csrutil</text><text x="10.02" y="16.867" class="h">st</text><use xlink:href="#19" y="17.368"/></svg><svg x="2760"><use xlink:href="#a"/><use xlink:href="#b" x="12.996" y="15.172"/><use xlink:href="#10" y="4.342"/><use xlink:href="#11" y="6.513"/><use xlink:href="#12" y="8.684"/><use xlink:href="#13" y="10.855"/><use xlink:href="#14" y="13.026"/><text y="16.867" class="h">cu</text><text x="2.004" y="16.867" class="k">csrutil</text><text x="10.02" y="16.867" class="h">sta</text><use xlink:href="#19" y="17.368"/></svg><svg x="2820"><use xlink:href="#a"/><use xlink:href="#b" x="13.996" y="15.172"/><use xlink:href="#10" y="4.342"/><use xlink:href="#11" y="6.513"/><use xlink:href="#12" y="8.684"/><use xlink:href="#13" y="10.855"/><use xlink:href="#14" y="13.026"/><text y="16.867" class="h">cu</text><text x="2.004" y="16.867" class="k">csrutil</text><text x="10.02" y="16.867" class="h">stat</text><use xlink:href="#19" y="17.368"/></svg><svg x="2880"><use xlink:href="#a"/><use xlink:href="#b" x="14.996" y="15.172"/><use xlink:href="#10" y="4.342"/><use xlink:href="#11" y="6.513"/><use xlink:href="#12" y="8.684"/><use xlink:href="#13" y="10.855"/><use xlink:href="#14" y="13.026"/><text y="16.867" class="h">cu</text><text x="2.004" y="16.867" class="k">csrutil</text><text x="10.02" y="16.867" class="h">statu</text><use xlink:href="#19" y="17.368"/></svg><svg x="2940"><use xlink:href="#a"/><use xlink:href="#b" x="15.996" y="15.172"/><use xlink:href="#10" y="4.342"/><use xlink:href="#11" y="6.513"/><use xlink:href="#12" y="8.684"/><use xlink:href="#13" y="10.855"/><use xlink:href="#14" y="13.026"/><use xlink:href="#20" y="15.197"/><use xlink:href="#19" y="17.368"/></svg><svg x="3000"><use xlink:href="#a"/><use xlink:href="#b" x="15.996" y="15.172"/><use xlink:href="#10" y="4.342"/><use xlink:href="#11" y="6.513"/><use xlink:href="#12" y="8.684"/><use xlink:href="#13" y="10.855"/><use xlink:href="#14" y="13.026"/><use xlink:href="#20" y="15.197"/><use xlink:href="#19" y="17.368"/></svg><svg x="3060"><use xlink:href="#a"/><use xlink:href="#b" x="-.004" y="17.343"/><use xlink:href="#10" y="4.342"/><use xlink:href="#11" y="6.513"/><use xlink:href="#12" y="8.684"/><use xlink:href="#13" y="10.855"/><use xlink:href="#14" y="13.026"/><use xlink:href="#20" y="15.197"/></svg><svg x="3120"><use xlink:href="#a"/><use xlink:href="#b" x="-.004" y="17.343"/><use xlink:href="#10" y="4.342"/><use xlink:href="#11" y="6.513"/><use xlink:href="#12" y="8.684"/><use xlink:href="#13" y="10.855"/><use xlink:href="#14" y="13.026"/><use xlink:href="#20" y="15.197"/></svg><svg x="3180"><use xlink:href="#a"/><use xlink:href="#b" x="-.004" y="19.514"/><use xlink:href="#10" y="4.342"/><use xlink:href="#11" y="6.513"/><use xlink:href="#12" y="8.684"/><use xlink:href="#13" y="10.855"/><use xlink:href="#14" y="13.026"/><use xlink:href="#20" y="15.197"/><use xlink:href="#21" y="17.368"/></svg><svg x="3240"><use xlink:href="#a"/><use xlink:href="#b" x="-.004" y="19.514"/><use xlink:href="#11"/><use xlink:href="#12" y="2.171"/><use xlink:href="#13" y="4.342"/><use xlink:href="#14" y="6.513"/><use xlink:href="#20" y="8.684"/><use xlink:href="#21" y="10.855"/><use xlink:href="#1" y="13.026"/></svg><svg x="3300"><use xlink:href="#a"/><use xlink:href="#b" x="-.004" y="19.514"/><use xlink:href="#11"/><use xlink:href="#12" y="2.171"/><use xlink:href="#13" y="4.342"/><use xlink:href="#14" y="6.513"/><use xlink:href="#20" y="8.684"/><use xlink:href="#21" y="10.855"/><use xlink:href="#1" y="13.026"/></svg><svg x="3360"><use xlink:href="#a"/><use xlink:href="#b" x="-.004" y="19.514"/><use xlink:href="#11"/><use xlink:href="#12" y="2.171"/><use xlink:href="#13" y="4.342"/><use xlink:href="#14" y="6.513"/><use xlink:href="#20" y="8.684"/><use xlink:href="#21" y="10.855"/><use xlink:href="#1" y="13.026"/></svg><svg x="3420"><use xlink:href="#a"/><use xlink:href="#b" x="-.004" y="19.514"/><use xlink:href="#11"/><use xlink:href="#12" y="2.171"/><use xlink:href="#13" y="4.342"/><use xlink:href="#14" y="6.513"/><use xlink:href="#20" y="8.684"/><use xlink:href="#21" y="10.855"/><use xlink:href="#1" y="13.026"/></svg><svg x="3480"><use xlink:href="#a"/><use xlink:href="#b" x="1.996" y="19.514"/><use xlink:href="#13"/><use xlink:href="#14" y="2.171"/><use xlink:href="#20" y="4.342"/><use xlink:href="#21" y="6.513"/><use xlink:href="#1" y="8.684"/><use xlink:href="#22" y="17.368"/><use xlink:href="#3" y="19.539"/></svg><svg x="3540"><use xlink:href="#a"/><use xlink:href="#b" x="1.996" y="19.514"/><use xlink:href="#13"/><use xlink:href="#14" y="2.171"/><use xlink:href="#20" y="4.342"/><use xlink:href="#21" y="6.513"/><use xlink:href="#1" y="8.684"/><use xlink:href="#22" y="17.368"/><use xlink:href="#3" y="19.539"/></svg><svg x="3600"><use xlink:href="#a"/><use xlink:href="#b" x="1.996" y="19.514"/><use xlink:href="#13"/><use xlink:href="#14" y="2.171"/><use xlink:href="#20" y="4.342"/><use xlink:href="#21" y="6.513"/><use xlink:href="#1" y="8.684"/><use xlink:href="#22" y="17.368"/><use xlink:href="#3" y="19.539"/></svg><svg x="3660"><use xlink:href="#a"/><use xlink:href="#b" x="2.996" y="19.514"/><use xlink:href="#13"/><use xlink:href="#14" y="2.171"/><use xlink:href="#20" y="4.342"/><use xlink:href="#21" y="6.513"/><use xlink:href="#1" y="8.684"/><use xlink:href="#22" y="17.368"/><text y="21.209" class="n">$</text><text x="2.004" y="21.209" class="n">e</text></svg><svg x="3720"><use xlink:href="#a"/><use xlink:href="#b" x="3.996" y="19.514"/><use xlink:href="#13"/><use xlink:href="#14" y="2.171"/><use xlink:href="#20" y="4.342"/><use xlink:href="#21" y="6.513"/><use xlink:href="#1" y="8.684"/><use xlink:href="#22" y="17.368"/><text y="21.209" class="n">$</text><text x="2.004" y="21.209" class="k">ex</text></svg><svg x="3780"><use xlink:href="#a"/><use xlink:href="#b" x="4.996" y="19.514"/><use xlink:href="#13"/><use xlink:href="#14" y="2.171"/><use xlink:href="#20" y="4.342"/><use xlink:href="#21" y="6.513"/><use xlink:href="#1" y="8.684"/><use xlink:href="#22" y="17.368"/><text y="21.209" class="n">$</text><text x="2.004" y="21.209" class="n">exi</text></svg><svg x="3840"><use xlink:href="#a"/><use xlink:href="#b" x="5.996" y="19.514"/><use xlink:href="#13"/><use xlink:href="#14" y="2.171"/><use xlink:href="#20" y="4.342"/><use xlink:href="#21" y="6.513"/><use xlink:href="#1" y="8.684"/><use xlink:href="#22" y="17.368"/><use xlink:href="#23" y="19.539"/></svg><svg x="3900"><use xlink:href="#a"/><use xlink:href="#b" x="5.996" y="19.514"/><use xlink:href="#13"/><use xlink:href="#14" y="2.171"/><use xlink:href="#20" y="4.342"/><use xlink:href="#21" y="6.513"/><use xlink:href="#1" y="8.684"/><use xlink:href="#22" y="17.368"/><use xlink:href="#23" y="19.539"/></svg><svg x="3960"><use xlink:href="#a"/><use xlink:href="#b" x="-.004" y="19.514"/><use xlink:href="#14"/><use xlink:href="#20" y="2.171"/><use xlink:href="#21" y="4.342"/><use xlink:href="#1" y="6.513"/><use xlink:href="#22" y="15.197"/><use xlink:href="#23" y="17.368"/></svg><svg x="4020"><use xlink:href="#a"/><use xlink:href="#b" x="-.004" y="19.514"/><use xlink:href="#14"/><use xlink:href="#20" y="2.171"/><use xlink:href="#21" y="4.342"/><use xlink:href="#1" y="6.513"/><use xlink:href="#22" y="15.197"/><use xlink:href="#23" y="17.368"/></svg><svg x="4080"><use xlink:href="#a"/><use xlink:href="#b" x="16.996" y="19.514"/><use xlink:href="#20"/><use xlink:href="#21" y="2.171"/><use xlink:href="#1" y="4.342"/><use xlink:href="#22" y="13.026"/><use xlink:href="#23" y="15.197"/><text y="21.209" class="h">Saving</text><text x="7.014" y="21.209" class="h">session...</text></svg><svg x="4140"><use xlink:href="#a"/><use xlink:href="#b" x="-.004" y="19.514"/><use xlink:href="#21"/><use xlink:href="#1" y="2.171"/><use xlink:href="#22" y="10.855"/><use xlink:href="#23" y="13.026"/><use xlink:href="#24" y="17.368"/></svg><svg x="4200"><use xlink:href="#a"/><use xlink:href="#b" x="27.996" y="19.514"/><use xlink:href="#21"/><use xlink:href="#1" y="2.171"/><use xlink:href="#22" y="10.855"/><use xlink:href="#23" y="13.026"/><use xlink:href="#24" y="17.368"/><text y="21.209" class="h">Deleting</text><text x="9.018" y="21.209" class="h">expired</text><text x="17.034" y="21.209" class="h">sessions...</text></svg><svg x="4260"><use xlink:href="#a"/><use xlink:href="#b" x="-.004" y="19.514"/><use xlink:href="#1"/><use xlink:href="#22" y="8.684"/><use xlink:href="#23" y="10.855"/><use xlink:href="#24" y="15.197"/><text y="19.038" class="h">Deleting</text><text x="9.018" y="19.038" class="h">expired</text><text x="17.034" y="19.038" class="h">sessions...none</text><text x="33.066" y="19.038" class="h">found.</text></svg></svg></g></g></svg></svg>